<mxGraphModel dx="2022" dy="1124" grid="1" gridSize="10" guides="1" tooltips="1" connect="1" arrows="1" fold="1" page="1" pageScale="1" pageWidth="850" pageHeight="1100" math="0" shadow="0">
  <root>
    <mxCell id="0" />
    <mxCell id="1" parent="0" />
    <mxCell id="X6SWlra4B1Gg6gS6ElPs-11" style="edgeStyle=orthogonalEdgeStyle;rounded=0;orthogonalLoop=1;jettySize=auto;html=1;exitX=1;exitY=0.5;exitDx=0;exitDy=0;fontSize=15;" parent="1" source="X6SWlra4B1Gg6gS6ElPs-1" target="X6SWlra4B1Gg6gS6ElPs-6" edge="1">
      <mxGeometry relative="1" as="geometry" />
    </mxCell>
    <mxCell id="X6SWlra4B1Gg6gS6ElPs-1" value="2D nuotrauka" style="rounded=0;whiteSpace=wrap;html=1;fontSize=15;" parent="1" vertex="1">
      <mxGeometry x="160" y="80" width="120" height="60" as="geometry" />
    </mxCell>
    <mxCell id="X6SWlra4B1Gg6gS6ElPs-10" style="edgeStyle=orthogonalEdgeStyle;rounded=0;orthogonalLoop=1;jettySize=auto;html=1;exitX=1;exitY=0.5;exitDx=0;exitDy=0;entryX=0;entryY=0.5;entryDx=0;entryDy=0;fontSize=15;" parent="1" source="X6SWlra4B1Gg6gS6ElPs-3" target="X6SWlra4B1Gg6gS6ElPs-7" edge="1">
      <mxGeometry relative="1" as="geometry" />
    </mxCell>
    <mxCell id="X6SWlra4B1Gg6gS6ElPs-3" value="2D nuotrauka" style="rounded=0;whiteSpace=wrap;html=1;fontSize=15;" parent="1" vertex="1">
      <mxGeometry x="160" y="210" width="120" height="60" as="geometry" />
    </mxCell>
    <mxCell id="X6SWlra4B1Gg6gS6ElPs-12" style="edgeStyle=orthogonalEdgeStyle;rounded=0;orthogonalLoop=1;jettySize=auto;html=1;exitX=1;exitY=0.5;exitDx=0;exitDy=0;entryX=0;entryY=0.5;entryDx=0;entryDy=0;fontSize=15;" parent="1" source="X6SWlra4B1Gg6gS6ElPs-4" target="X6SWlra4B1Gg6gS6ElPs-8" edge="1">
      <mxGeometry relative="1" as="geometry" />
    </mxCell>
    <mxCell id="X6SWlra4B1Gg6gS6ElPs-4" value="2D nuotrauka" style="rounded=0;whiteSpace=wrap;html=1;fontSize=15;" parent="1" vertex="1">
      <mxGeometry x="160" y="300" width="120" height="60" as="geometry" />
    </mxCell>
    <mxCell id="X6SWlra4B1Gg6gS6ElPs-5" value="" style="endArrow=none;dashed=1;html=1;dashPattern=1 3;strokeWidth=2;fontSize=15;" parent="1" edge="1">
      <mxGeometry width="50" height="50" relative="1" as="geometry">
        <mxPoint x="220" y="190" as="sourcePoint" />
        <mxPoint x="220" y="150" as="targetPoint" />
      </mxGeometry>
    </mxCell>
    <mxCell id="X6SWlra4B1Gg6gS6ElPs-16" style="endArrow=classic;html=1;entryX=0;entryY=0.25;entryDx=0;entryDy=0;exitX=1;exitY=0.5;exitDx=0;exitDy=0;fontSize=15;" parent="1" source="X6SWlra4B1Gg6gS6ElPs-6" target="X6SWlra4B1Gg6gS6ElPs-13" edge="1">
      <mxGeometry relative="1" as="geometry" />
    </mxCell>
    <mxCell id="X6SWlra4B1Gg6gS6ElPs-6" value="Konvoliucinis&lt;br style=&quot;font-size: 15px&quot;&gt;neuroninis tinklas&lt;br style=&quot;font-size: 15px&quot;&gt;C&lt;sub&gt;&lt;font style=&quot;font-size: 12.5px&quot;&gt;1&lt;/font&gt;&lt;/sub&gt;" style="rounded=1;whiteSpace=wrap;html=1;fillColor=#dae8fc;strokeColor=#6c8ebf;fontSize=15;" parent="1" vertex="1">
      <mxGeometry x="360" y="80" width="120" height="60" as="geometry" />
    </mxCell>
    <mxCell id="X6SWlra4B1Gg6gS6ElPs-14" style="endArrow=classic;html=1;entryX=0;entryY=0.5;entryDx=0;entryDy=0;exitX=1;exitY=0.5;exitDx=0;exitDy=0;fontSize=15;" parent="1" source="X6SWlra4B1Gg6gS6ElPs-7" target="X6SWlra4B1Gg6gS6ElPs-13" edge="1">
      <mxGeometry relative="1" as="geometry" />
    </mxCell>
    <mxCell id="X6SWlra4B1Gg6gS6ElPs-7" value="Konvoliucinis&lt;br style=&quot;font-size: 15px&quot;&gt;neuroninis tinklas&lt;br style=&quot;font-size: 15px&quot;&gt;C&lt;sub&gt;&lt;font style=&quot;font-size: 12.5px&quot;&gt;1&lt;/font&gt;&lt;/sub&gt;" style="rounded=1;whiteSpace=wrap;html=1;fillColor=#dae8fc;strokeColor=#6c8ebf;fontSize=15;" parent="1" vertex="1">
      <mxGeometry x="360" y="210" width="120" height="60" as="geometry" />
    </mxCell>
    <mxCell id="X6SWlra4B1Gg6gS6ElPs-15" style="endArrow=classic;html=1;entryX=0;entryY=0.75;entryDx=0;entryDy=0;exitX=1;exitY=0.5;exitDx=0;exitDy=0;fontSize=15;" parent="1" source="X6SWlra4B1Gg6gS6ElPs-8" target="X6SWlra4B1Gg6gS6ElPs-13" edge="1">
      <mxGeometry relative="1" as="geometry" />
    </mxCell>
    <mxCell id="X6SWlra4B1Gg6gS6ElPs-8" value="Konvoliucinis&lt;br style=&quot;font-size: 15px&quot;&gt;neuroninis tinklas&lt;br style=&quot;font-size: 15px&quot;&gt;C&lt;sub&gt;1&lt;/sub&gt;" style="rounded=1;whiteSpace=wrap;html=1;fillColor=#dae8fc;strokeColor=#6c8ebf;fontSize=15;" parent="1" vertex="1">
      <mxGeometry x="360" y="300" width="120" height="60" as="geometry" />
    </mxCell>
    <mxCell id="X6SWlra4B1Gg6gS6ElPs-9" value="" style="endArrow=none;dashed=1;html=1;dashPattern=1 3;strokeWidth=2;fontSize=15;" parent="1" edge="1">
      <mxGeometry width="50" height="50" relative="1" as="geometry">
        <mxPoint x="420" y="190" as="sourcePoint" />
        <mxPoint x="420" y="150" as="targetPoint" />
      </mxGeometry>
    </mxCell>
    <mxCell id="X6SWlra4B1Gg6gS6ElPs-19" style="edgeStyle=orthogonalEdgeStyle;rounded=0;orthogonalLoop=1;jettySize=auto;html=1;exitX=1;exitY=0.5;exitDx=0;exitDy=0;entryX=0;entryY=0.5;entryDx=0;entryDy=0;fontSize=15;" parent="1" source="X6SWlra4B1Gg6gS6ElPs-13" target="X6SWlra4B1Gg6gS6ElPs-18" edge="1">
      <mxGeometry relative="1" as="geometry" />
    </mxCell>
    <mxCell id="X6SWlra4B1Gg6gS6ElPs-13" value="Vaizdų&lt;br style=&quot;font-size: 15px;&quot;&gt;apjungimo&lt;br style=&quot;font-size: 15px;&quot;&gt;sluoksnis" style="rounded=1;whiteSpace=wrap;html=1;fillColor=#dae8fc;strokeColor=#6c8ebf;fontSize=15;" parent="1" vertex="1">
      <mxGeometry x="580" y="180" width="120" height="60" as="geometry" />
    </mxCell>
    <mxCell id="X6SWlra4B1Gg6gS6ElPs-20" style="edgeStyle=orthogonalEdgeStyle;rounded=0;orthogonalLoop=1;jettySize=auto;html=1;exitX=1;exitY=0.5;exitDx=0;exitDy=0;fontSize=15;" parent="1" source="X6SWlra4B1Gg6gS6ElPs-18" edge="1">
      <mxGeometry relative="1" as="geometry">
        <mxPoint x="960" y="210" as="targetPoint" />
      </mxGeometry>
    </mxCell>
    <mxCell id="X6SWlra4B1Gg6gS6ElPs-18" value="Konvoliucinis&lt;br style=&quot;font-size: 15px&quot;&gt;neuroninis tinklas&lt;br style=&quot;font-size: 15px&quot;&gt;C&lt;sub&gt;2&lt;/sub&gt;" style="rounded=1;whiteSpace=wrap;html=1;fillColor=#dae8fc;strokeColor=#6c8ebf;fontSize=15;" parent="1" vertex="1">
      <mxGeometry x="780" y="180" width="120" height="60" as="geometry" />
    </mxCell>
    <mxCell id="X6SWlra4B1Gg6gS6ElPs-21" value="Išėjimas" style="text;html=1;align=center;verticalAlign=middle;resizable=0;points=[];autosize=1;fontSize=15;" parent="1" vertex="1">
      <mxGeometry x="955" y="200" width="70" height="20" as="geometry" />
    </mxCell>
  </root>
</mxGraphModel>
